# xmcd
#
# Track frame offsets:
#	182
#	19700
#	39195
#	58910
#	72612
#	91615
#	110975
#	128025
#	146927
#	166367
#	182807
#	203930
#	219395
#
# Disc length: 3102 seconds
#
# Revision: 1
# Processed by: cddbd v1.4PL0 Copyright (c) Steve Scherf et al.
# Submitted via: audiograbber 1.80.04
#
DISCID=c40c1c0d
DTITLE=Delta Blues Band (The incredible) - Bluesman
DYEAR=1995
DGENRE=Blues
TTITLE0=Hard Times
TTITLE1=Bluesman
TTITLE2=She´s got The Devil
TTITLE3=Take Your Hat and Leave
TTITLE4=Movin´ on down The Line
TTITLE5=I´ll play The Blues for You
TTITLE6=Gonna Need Somebody
TTITLE7=Put The Blame on Me
TTITLE8=Hard Drinking Man
TTITLE9=Southern Breeze
TTITLE10=Caretaker of Your Mind
TTITLE11=I´ll leave You now
TTITLE12=Goodnight
EXTD=Delta Blues Band :\nTroels Jensen - Piano, Organ (Orgel), Guital and Vocal\n
EXTD=Søren Engel: Bas \nPreben Feddersen: trommer (Drums]\nMicheal Lee Rasmusse
EXTD=n - Guitar\n\nArrangement: Delta Blues Band:\nTeknik: Flemming Rasmussen\n
EXTD=Assistent: Henrik Vindeby\nMix: Flemming Rasmussen and Søren Engel\nRecorded
EXTD=in Sweet Silence
EXTT0=Troels Jensen/ M. Lee Rasmussen
EXTT1=Troels Jensen
EXTT2=Troels Jensen - M. Lee Rasmussen
EXTT3=Troels Jensen - M. Lee Rasmussen
EXTT4=Troels Jensen - M. Lee Rasmussen
EXTT5=Albert King
EXTT6=Trad. arr. Troels Jensen, M. Lee Rasmussen, S. Engel, P. Feddersen
EXTT7=Troels Jensen - M. Lee Rasmussen
EXTT8=Troels Jensen
EXTT9=M. Lee Rasmussen
EXTT10=Troels Jensen - M. Lee Rasmussen
EXTT11=Elmore James
EXTT12=Troels Jensen
PLAYORDER=
